<svg id="BG" xmlns="http://www.w3.org/2000/svg" viewBox="0 0 25.43 25.43"><defs><style>.cls-1{fill:#06c;}</style></defs><title>search-icon</title><path class="cls-1" d="M4758.54,3350.44l-5.83-5.83a11.2,11.2,0,0,1-3.38,3.37l5.84,5.83a2.38,2.38,0,0,0,3.37-3.37Z" transform="translate(-4733.81 -3329.08)"/><path class="cls-1" d="M4752.88,3338.62a9.54,9.54,0,1,0-9.54,9.53A9.54,9.54,0,0,0,4752.88,3338.62Zm-9.54,7.15a7.15,7.15,0,1,1,7.16-7.15A7.16,7.16,0,0,1,4743.34,3345.77Z" transform="translate(-4733.81 -3329.08)"/><path class="cls-1" d="M4747.37,3334.63l-1.12,1.12a4,4,0,0,1,0,5.62l1.12,1.13A5.57,5.57,0,0,0,4747.37,3334.63Z" transform="translate(-4733.81 -3329.08)"/></svg>