<svg id="BG" xmlns="http://www.w3.org/2000/svg" viewBox="0 0 111.86 58.06"><defs><style>.cls-1{fill:#06c;}</style></defs><title>logo</title><path class="cls-1" d="M3361.88,3712.68a4.92,4.92,0,0,0-2.88-.82,5,5,0,0,0-3,1v-7.33h-3.63v23.91H3356V3717a2,2,0,0,1,2.08-1.88,2.2,2.2,0,0,1,1.86.86,4.54,4.54,0,0,1,.42,2.54v11H3364v-11.1C3364,3715.06,3363.52,3713.9,3361.88,3712.68Z" transform="translate(-3286.21 -3690.39)"/><path class="cls-1" d="M3330.08,3711.86c-3.37,0-5.43,2.15-5.8,6.2,0,.33-.08.92-.1,2.83,0,1.39.08,2.53.09,2.82.24,3.79,2.41,6.12,5.81,6.12s5.57-2.38,5.81-6.12c0-.27.09-1.43.09-2.82,0-.63-.05-2.34-.1-2.82C3335.37,3713,3332.46,3711.86,3330.08,3711.86Zm2.2,12.23c-.12,1.3-.68,2.68-2.19,2.68s-2.12-1.47-2.19-2.74h0s-.09-.8-.09-3.14.09-3.32.09-3.33c0-1.32.7-2.64,2.19-2.64s2.17,1.32,2.19,2.63c0,0,.09,1,.09,3.34A31.94,31.94,0,0,1,3332.28,3724.09Z" transform="translate(-3286.21 -3690.39)"/><path class="cls-1" d="M3378.06,3719.82c0-.28,0-.76-.1-1.75a8.11,8.11,0,0,0-1.56-4.3,5.17,5.17,0,0,0-4.15-1.91c-3.27,0-5.31,2.13-5.72,6.2a27.52,27.52,0,0,0-.09,2.83c0,1.39.08,2.55.09,2.82.22,3.72,2.42,6.12,5.72,6.12s5.48-2.33,5.71-6.3h-3.48a4.13,4.13,0,0,1,0,.59c-.1.84-.44,2.65-2.2,2.65-1.51,0-2.08-1.37-2.19-2.73,0-.39-.09-.82-.09-2.29h8.09S3378.08,3720.55,3378.06,3719.82Zm-8.06-1.08c0-.79,0-1,0-1.19.1-1.43.75-2.62,2.21-2.63,1.74,0,2.15,1.69,2.21,2.64a11.11,11.11,0,0,1,.07,1.18Z" transform="translate(-3286.21 -3690.39)"/><path class="cls-1" d="M3373.08,3690.39h-61.79l-25.08,29.13,25.08,28.94h61.79l25-28.85Zm-1.42,55.32h-58.95l-22.63-26.1,22.63-26.29h58.95l22.54,26.38Z" transform="translate(-3286.21 -3690.39)"/><path class="cls-1" d="M3321.66,3722.09c-.16-2.63-.85-4.17-2.21-5,1-.59,2.25-2.05,2.24-5.1,0-4.65-2.9-6.28-6.29-6.31h-5.55v23.73h3.59v-10.85h2c1.15,0,2.45,1,2.65,3.84l.37,5.55a9.06,9.06,0,0,0,.18,1.46h3.58a8.72,8.72,0,0,1-.18-1.48Zm-3.58-9.44c-.11,1-.57,2.88-2.75,2.88h-1.89v-6.75h1.71a2.6,2.6,0,0,1,2.93,2.75c0,.13,0,.28,0,.56S3318.09,3712.52,3318.08,3712.65Z" transform="translate(-3286.21 -3690.39)"/><path class="cls-1" d="M3344.24,3714.92c1.53,0,2.17,1.32,2.19,2.63,0,0,0,.33.06,1h3.58c0-.24,0-.43,0-.55-.4-5-3.42-6.16-5.81-6.16-3.37,0-5.43,2.15-5.8,6.2,0,.33-.08.92-.1,2.83,0,1.39.08,2.53.1,2.82.23,3.79,2.4,6.11,5.8,6.12s5.48-2.14,5.81-6.12a1,1,0,0,0,0-.34h-3.58c0,.26,0,.5-.05.66-.1,1.32-.57,2.74-2.19,2.74s-2.11-1.53-2.22-2.66c-.06-.68-.05-1.21-.06-3.22a29,29,0,0,1,.09-3.33C3342.18,3716.08,3342.75,3714.93,3344.24,3714.92Z" transform="translate(-3286.21 -3690.39)"/></svg>