<?xml version="1.0" ?><!DOCTYPE svg  PUBLIC '-//W3C//DTD SVG 1.1//EN'  'http://www.w3.org/Graphics/SVG/1.1/DTD/svg11.dtd'><svg height="100%" style="fill-rule:evenodd;clip-rule:evenodd;stroke-linejoin:round;stroke-miterlimit:1.41421;" version="1.1" viewBox="0 0 128 128" width="100%" xml:space="preserve" xmlns="http://www.w3.org/2000/svg" xmlns:serif="http://www.serif.com/" xmlns:xlink="http://www.w3.org/1999/xlink"><rect height="128" id="Menu" style="fill:none;" width="128" x="0.369" y="0.21"/><path fill="#0066cc" d="M104.369,95l-80,0c-2.105,-0.132 -3.004,-3.811 0,-4l80,0c0.083,0.005 0.167,0.011 0.25,0.016c1.952,0.372 2.674,3.8 -0.25,3.984Zm0,-20.263l-80,0c-2.049,-0.129 -3.087,-3.806 0,-4l80,0c0.083,0.005 0.167,0.01 0.25,0.015c1.952,0.373 2.674,3.801 -0.25,3.985Zm0,-20.264l-80,0c-2.079,-0.13 -3.004,-3.811 0,-4l80,0c0.083,0.006 0.167,0.011 0.25,0.016c1.977,0.377 2.599,3.805 -0.25,3.984Zm0,-20.263l-80,0c-1.728,-0.109 -1.805,-0.789 -1.965,-1.625c-0.22,-1.155 0.736,-2.298 1.965,-2.375l80,0c0.083,0.005 0.167,0.011 0.25,0.016c1.701,0.324 1.692,1.008 1.746,1.858c0.068,1.084 -0.852,2.054 -1.996,2.126Z" style="fill-rule:nonzero;"/></svg>